# xmcd
#
# Track frame offsets:
#	150
#	16075
#	33795
#	48398
#	63133
#	84349
#	101802
#	120011
#	139310
#	166060
#	184770
#	201478
#	229651
#	247528
#	265329
#	283658
#	299319
#
# Disc length: 4364 seconds
#
# Revision: 0
# Processed by: cddbd v1.5.2PL0 Copyright (c) Steve Scherf et al.
# Submitted via: dBpowerAMP V4.0
#
DISCID=dc110a11
DTITLE=Deaf Dealer - Keeper Of The Flame Journey into Fear
DYEAR=2006
DGENRE=Thrash Metal
TTITLE0=Don't get in my way
TTITLE1=Deaf dealer
TTITLE2=On the wings of a russian foxbat
TTITLE3=The fugitive
TTITLE4=Dead zone
TTITLE5=Sadist
TTITLE6=Free and easy
TTITLE7=Getting ready to go
TTITLE8=Caution to kill
TTITLE9=Back to the gods country
TTITLE10=Mind games
TTITLE11=Blood cut sound
TTITLE12=Tribute to a madman
TTITLE13=East and terror
TTITLE14=To hell and back
TTITLE15=Escape from a mountain
TTITLE16=Journey into fear
EXTD=
EXTT0=
EXTT1=
EXTT2=
EXTT3=
EXTT4=
EXTT5=
EXTT6=
EXTT7=
EXTT8=
EXTT9=
EXTT10=
EXTT11=
EXTT12=
EXTT13=
EXTT14=
EXTT15=
EXTT16=
PLAYORDER=
